<svg width="64" height="64" viewBox="0 0 100 100" xmlns="http://www.w3.org/2000/svg">
  <defs>
    <clipPath id="r"><circle cx="50" cy="50" r="48"/></clipPath>
    <linearGradient id="sky" x1="0" y1="0" x2="0" y2="1">
      <stop offset="0%" stop-color="#A9DCF7"/>
      <stop offset="100%" stop-color="#FFF1C9"/>
    </linearGradient>
  </defs>
  <g clip-path="url(#r)">
    <rect width="100" height="100" fill="url(#sky)"/>
    <circle cx="50" cy="46" r="17" fill="#FFC93C"/>
    <circle cx="50" cy="46" r="17" fill="none" stroke="#9B1B1B" stroke-width="2.5" opacity="0.85"/>
    <g stroke="#F4A500" stroke-width="3.4" stroke-linecap="round">
      <line x1="50" y1="24" x2="50" y2="18"/>
      <line x1="65.6" y1="30.4" x2="69.9" y2="26.1"/>
      <line x1="72" y1="46" x2="78" y2="46"/>
      <line x1="65.6" y1="61.6" x2="69.9" y2="65.9"/>
      <line x1="34.4" y1="30.4" x2="30.1" y2="26.1"/>
      <line x1="28" y1="46" x2="22" y2="46"/>
    </g>
    <path d="M-5 78 Q 25 58 55 78 T 110 74 V105 H-5 Z" fill="#5BC57A"/>
    <path d="M-5 88 Q 35 70 70 88 T 110 86 V105 H-5 Z" fill="#3AA95C"/>
    <path d="M50 86 V72" stroke="#2f7d44" stroke-width="3" stroke-linecap="round"/>
    <path d="M50 76 C 44 74 41 68 42 63 C 48 64 51 70 50 76 Z" fill="#FFF" opacity="0.95"/>
    <path d="M50 80 C 56 78 59 72 58 67 C 52 68 49 74 50 80 Z" fill="#FFF" opacity="0.95"/>
  </g>
  <circle cx="50" cy="50" r="47" fill="none" stroke="#9B1B1B" stroke-width="3"/>
</svg>
